<svg width="128" height="128" viewBox="0 0 128 128" fill="none" xmlns="http://www.w3.org/2000/svg">
<g filter="url(#filter0_d_408_10426)">
<rect x="63.6949" y="54.0984" width="50.9638" height="50.9638" rx="7.41291" transform="rotate(9.222 63.6949 54.0984)" fill="#F9F8F1" shape-rendering="crispEdges"/>
<path fill-rule="evenodd" clip-rule="evenodd" d="M96.0062 82.7194C97.2324 75.1673 92.8641 70.1352 86.9604 69.1767L86.9522 69.1825C80.5661 68.1457 75.4448 72.1023 74.3488 78.8524C73.6073 83.42 75.0382 87.1664 78.3878 89.4566C78.4914 89.5437 78.5801 89.6167 78.6556 89.6788C78.9494 89.9204 79.0429 89.9973 79.0267 90.0971C79.0125 90.1846 78.8798 90.2782 78.7302 90.3837C78.6412 90.4465 78.5463 90.5135 78.4666 90.5859C77.9276 91.0352 77.4985 91.6598 77.3785 92.3989C77.2585 93.1381 77.4994 93.807 78.0103 93.89C78.2671 93.9317 78.4852 93.6604 78.746 93.3361C79.1338 92.8538 79.6161 92.2541 80.4603 92.3911C81.2394 92.5176 82.1658 93.5434 83.2239 94.7152C84.6331 96.2756 86.276 98.0948 88.1158 98.3936C90.9541 98.8544 92.442 96.5981 92.682 95.1198C92.8439 94.1226 92.6265 93.4432 92.2717 93.3855C92.1013 93.3579 91.9578 93.4944 91.7722 93.671C91.4323 93.9945 90.9512 94.4523 89.9049 94.2824C88.7998 94.103 87.5239 93.2494 86.5557 92.6018L86.5537 92.6004C86.3974 92.4958 86.2491 92.3966 86.1109 92.3066C85.8594 92.1512 85.7662 92.0073 85.7787 91.9305C85.7934 91.8399 85.9149 91.8095 86.1002 91.7895C90.8931 91.6945 95.0178 88.8071 96.0062 82.7194ZM80.9264 84.7657C80.301 82.5171 80.3374 79.9607 80.685 77.8199C81.4503 73.106 83.8206 71.5154 85.8073 71.838C87.5245 72.1168 89.0164 73.7833 89.7023 76.2422C90.3565 78.4025 90.4974 81.3025 90.1182 83.6386C89.4479 87.7668 87.1539 89.1121 84.862 88.7399C83.2726 88.4819 81.6676 87.1978 80.9264 84.7657Z" fill="#0A0A0A"/>
</g>
<g filter="url(#filter1_d_408_10426)">
<rect x="14" y="26.5959" width="50.9638" height="50.9638" rx="7.41291" transform="rotate(-12 14 26.5959)" fill="#F9F8F1" shape-rendering="crispEdges"/>
<g clip-path="url(#clip0_408_10426)">
<path fill-rule="evenodd" clip-rule="evenodd" d="M39.9029 41.6268C38.9476 41.8299 38.3917 42.2731 38.0583 43.4352L36.541 48.7497L35.6391 44.5067C35.37 43.2404 34.638 42.7459 33.5272 42.982C32.4165 43.2181 32.0302 43.6949 31.7015 44.8793L30.2986 50.0766L29.4062 45.878C29.1182 44.5229 28.44 44.0633 27.0849 44.3514L24.3303 44.9369C23.2862 45.1588 22.8125 45.7703 23.0013 46.6589C23.1902 47.5475 23.8589 47.9626 24.8808 47.7454L26.0138 47.5046L27.1517 52.8584C27.4728 54.369 28.6836 55.0404 30.1498 54.7287C31.6159 54.4171 32.1596 53.6978 32.6047 52.1869L33.5667 48.8479L34.105 51.3804C34.4213 52.8688 35.5924 53.5718 37.0808 53.2555C38.5692 52.9391 39.016 52.3101 39.5579 50.7089L41.9234 43.7049C42.4351 42.1798 41.6578 41.2538 39.8807 41.6315C39.8807 41.6315 39.8807 41.6315 39.9029 41.6268Z" fill="#873EFF"/>
<path fill-rule="evenodd" clip-rule="evenodd" d="M46.8338 40.1536C43.8126 40.7958 42.0014 43.5259 42.6483 46.5693C43.2952 49.6127 46.0777 51.3431 49.0767 50.7057C52.0757 50.0682 53.8869 47.3382 53.267 44.3122C52.6201 41.2688 49.8328 39.5162 46.8338 40.1536ZM48.3873 47.4623C47.2543 47.7031 46.2974 47.0242 46.0471 45.8468C45.7969 44.6695 46.3902 43.6378 47.5232 43.397C48.6562 43.1562 49.6178 43.8573 49.8681 45.0347C50.1183 46.2121 49.5425 47.2168 48.3873 47.4623Z" fill="#873EFF"/>
<path fill-rule="evenodd" clip-rule="evenodd" d="M58.1856 37.7407C55.1866 38.3782 53.3532 41.1129 54.0001 44.1564C54.647 47.1998 57.4295 48.9302 60.4285 48.2927C63.4275 47.6553 65.261 44.9205 64.6188 41.8993C63.9766 38.8781 61.1846 37.1032 58.1856 37.7407ZM59.7391 45.0494C58.584 45.2949 57.6714 44.6066 57.4212 43.4292C57.1709 42.2518 57.7421 41.2249 58.875 40.9841C60.008 40.7432 60.9697 41.4444 61.2199 42.6217C61.4702 43.7991 60.8943 44.8038 59.7391 45.0494Z" fill="#873EFF"/>
</g>
</g>
<defs>
<filter id="filter0_d_408_10426" x="52.516" y="54.0984" width="61.484" height="61.0207" filterUnits="userSpaceOnUse" color-interpolation-filters="sRGB">
<feFlood flood-opacity="0" result="BackgroundImageFix"/>
<feColorMatrix in="SourceAlpha" type="matrix" values="0 0 0 0 0 0 0 0 0 0 0 0 0 0 0 0 0 0 127 0" result="hardAlpha"/>
<feOffset dx="-3.0115" dy="2.54819"/>
<feComposite in2="hardAlpha" operator="out"/>
<feColorMatrix type="matrix" values="0 0 0 0 0.0392157 0 0 0 0 0.0392157 0 0 0 0 0.0392157 0 0 0 1 0"/>
<feBlend mode="normal" in2="BackgroundImageFix" result="effect1_dropShadow_408_10426"/>
<feBlend mode="normal" in="SourceGraphic" in2="effect1_dropShadow_408_10426" result="shape"/>
</filter>
<filter id="filter1_d_408_10426" x="11.6835" y="16" width="62.7626" height="62.7626" filterUnits="userSpaceOnUse" color-interpolation-filters="sRGB">
<feFlood flood-opacity="0" result="BackgroundImageFix"/>
<feColorMatrix in="SourceAlpha" type="matrix" values="0 0 0 0 0 0 0 0 0 0 0 0 0 0 0 0 0 0 127 0" result="hardAlpha"/>
<feOffset dx="-2.31654" dy="2.31654"/>
<feComposite in2="hardAlpha" operator="out"/>
<feColorMatrix type="matrix" values="0 0 0 0 0.0392157 0 0 0 0 0.0392157 0 0 0 0 0.0392157 0 0 0 1 0"/>
<feBlend mode="normal" in2="BackgroundImageFix" result="effect1_dropShadow_408_10426"/>
<feBlend mode="normal" in="SourceGraphic" in2="effect1_dropShadow_408_10426" result="shape"/>
</filter>
<clipPath id="clip0_408_10426">
<rect width="41.6976" height="10.7878" fill="white" transform="translate(22.7084 45.2817) rotate(-12)"/>
</clipPath>
</defs>
</svg>
